<svg width="98" height="72" viewBox="0 0 98 72" fill="none" xmlns="http://www.w3.org/2000/svg">
<path d="M83.5731 1.15931C82.0274 -0.386435 79.4511 -0.386435 77.9054 1.15931C76.3597 2.70505 76.3597 5.28128 77.9054 6.82702C85.6341 14.5557 89.8591 24.7576 89.8591 35.7839C89.8591 46.7072 85.6341 57.0121 77.9054 64.7408C76.3597 66.2865 76.3597 68.8628 77.9054 70.4085C78.7298 71.2329 79.7603 71.5421 80.7908 71.5421C81.8213 71.5421 82.8518 71.1299 83.6762 70.4085C92.9506 61.1341 98 48.8712 98 35.7839C97.897 22.6966 92.8476 10.3307 83.5731 1.15931Z" fill="#885913"/>
<path d="M8.03786 35.7839C8.03786 24.8607 12.2629 14.5557 19.9916 6.82702C21.5373 5.28128 21.5373 2.70505 19.9916 1.15931C18.4458 -0.386435 15.8696 -0.386435 14.3239 1.15931C5.04942 10.3307 0 22.6966 0 35.7839C0 48.8712 5.04942 61.1341 14.3239 70.4085C15.1483 71.2329 16.1788 71.5421 17.2093 71.5421C18.2398 71.5421 19.2702 71.1299 20.0946 70.4085C21.6404 68.8628 21.6404 66.2865 20.0946 64.7408C12.2629 57.0121 8.03786 46.7072 8.03786 35.7839Z" fill="#885913"/>
<path d="M73.4742 11.2582C71.9285 9.71244 69.3523 9.71244 67.8065 11.2582C66.2608 12.8039 66.2608 15.3802 67.8065 16.9259C72.8559 21.9753 75.6383 28.6735 75.6383 35.7839C75.6383 42.8944 72.8559 49.5926 67.8065 54.5389C66.2608 56.0847 66.2608 58.6609 67.8065 60.2067C68.6309 61.031 69.6614 61.3402 70.6919 61.3402C71.7224 61.3402 72.7529 60.928 73.5773 60.2067C80.0694 53.7145 83.6761 44.9553 83.6761 35.6809C83.5731 26.5095 79.9664 17.7503 73.4742 11.2582Z" fill="#885913"/>
<path d="M22.2588 35.7839C22.2588 28.6735 25.0411 21.9753 30.0905 16.9259C31.6363 15.3802 31.6363 12.8039 30.0905 11.2582C28.5448 9.71244 25.9686 9.71244 24.4228 11.2582C17.9307 17.7503 14.324 26.5095 14.324 35.7839C14.324 44.9553 18.0338 53.9207 24.5259 60.3097C25.3503 61.0311 26.2777 61.4433 27.3082 61.4433C28.3387 61.4433 29.3692 61.0311 30.1936 60.2067C31.7393 58.6609 31.7393 56.0847 30.1936 54.5389C25.1442 49.6956 22.2588 42.7913 22.2588 35.7839Z" fill="#885913"/>
<path d="M63.4785 21.3571C61.9328 19.8113 59.3566 19.7083 57.8108 21.3571C56.2651 22.9028 56.162 25.4791 57.8108 27.0248C60.1809 29.3949 61.4175 32.4864 61.4175 35.784C61.4175 39.0816 60.1809 42.1731 57.8108 44.5432C56.2651 46.0889 56.2651 48.6652 57.8108 50.2109C58.6352 50.9323 59.5627 51.3445 60.5931 51.3445C61.6236 51.3445 62.6541 50.9323 63.4785 50.1079C67.2914 46.192 69.4554 41.1426 69.4554 35.6809C69.3523 30.3224 67.2914 25.273 63.4785 21.3571Z" fill="#885913"/>
<path d="M40.1893 21.3571C38.6435 19.8113 36.0673 19.8113 34.5215 21.3571C30.6057 25.2729 28.5447 30.3224 28.5447 35.784C28.5447 41.2456 30.7087 46.3981 34.5215 50.2109C35.3459 51.0353 36.3764 51.3444 37.4069 51.3444C38.4374 51.3444 39.4679 50.9322 40.2923 50.2109C41.8381 48.6652 41.8381 46.0889 40.2923 44.5432C37.8191 42.173 36.5825 39.0816 36.5825 35.784C36.5825 32.4864 37.9222 29.3949 40.1893 27.0248C41.735 25.479 41.735 22.9028 40.1893 21.3571Z" fill="#885913"/>
<path d="M48.9486 41.8637C52.3064 41.8637 55.0285 39.1416 55.0285 35.7838C55.0285 32.4259 52.3064 29.7039 48.9486 29.7039C45.5907 29.7039 42.8687 32.4259 42.8687 35.7838C42.8687 39.1416 45.5907 41.8637 48.9486 41.8637Z" fill="#885913"/>
</svg>
