<svg width="73" height="84" viewBox="0 0 73 84" fill="none" xmlns="http://www.w3.org/2000/svg">
<path d="M13.0155 65.9C13.6155 65.2 14.3155 64.3 14.5155 64.1C14.5155 64 14.6155 63.9 14.7155 63.9C14.9155 63.7 15.3155 63.4 16.1155 63.5L20.1155 64L17.9155 60.4C17.7155 60.3 17.7155 60.1 17.7155 59.9C17.7155 59.8 17.7155 59.7 17.7155 59.6V59.5V59.4C17.7155 59.4 17.7155 59.4 17.7155 59.3C17.7155 59.3 17.7155 59.3 17.7155 59.2V59.1L19.4155 55.2L15.3155 56C14.7155 56.1 14.3155 56 14.1155 55.9C14.0155 55.9 14.0155 55.8 13.9155 55.8L10.7155 53C10.7155 53 10.5155 55.9 10.4155 56.2C10.4155 57.3 10.3155 58 9.71554 58.3L7.81554 59.4L5.91554 60.5C5.91554 60.5 6.61554 60.8 7.51554 61.1C8.61554 61.5 9.91554 62.1 10.1155 62.2C10.5155 62.5 10.6155 62.7 10.7155 62.9L10.8155 63.2C10.9155 63.8 11.6155 67.2 11.6155 67.2C11.6155 67.2 12.4155 66.6 13.0155 65.9ZM48.5155 29.1C48.0155 29.9 47.6155 30.8 47.8155 31.8C47.8155 32.5 48.1155 33.1 48.5155 33.6C50.0155 34.7 51.4155 35.9 52.7155 37.3C54.2155 35.5 55.7155 33.6 56.0155 33.2C56.3155 32.8 56.8155 32.4 57.4155 32.2C57.5155 32.2 57.6155 32.1 57.7155 32.1C58.0155 32.1 58.2155 32.1 58.5155 32.2C59.5155 32.5 59.7155 33.3 59.9155 33.8L60.1155 34.5L62.2155 43.2L71.2155 46.9C72.2155 47.3 72.7155 48.1 72.6155 49C72.6155 49.5 72.4155 50.1 71.4155 50.7L63.2155 55.7L63.0155 59C63.5155 61.5 63.7155 64 63.7155 66.5C63.7155 70.5 62.1155 73.9 59.4155 76.7C54.6155 81.3 45.0155 83.4 35.5155 83.4C26.0155 83.4 16.4155 81.4 11.7155 76.7C9.01554 74 7.41554 70.6 7.41554 66.5C7.41554 65.9 7.41554 65.4 7.41554 64.8L0.715542 62.1C0.315542 61.9 -0.0844582 61.4 0.0155418 60.7C0.0155418 60.2 0.215541 59.7 0.615541 59.6C1.91554 58.8 7.11554 55.9 7.11554 55.9C7.11554 55.9 7.51554 50.6 7.71554 48.3C7.81554 47.9 8.21554 47.5 8.71554 47.3C9.21554 47.1 9.81554 47.3 10.2155 47.6C10.5155 47.9 10.9155 48.3 11.4155 48.6C12.4155 46.3 13.6155 44.1 14.9155 42.1C17.1155 38.6 19.8155 35.9 22.7155 33.8C23.2155 33.2 23.4155 32.7 23.4155 32C23.6155 31 23.2155 30.1 22.7155 29.3C20.0155 26.3 18.1155 22.1 18.1155 17.5C18.1155 7.9 25.9155 0 35.6155 0H35.7155C35.8155 0 35.8155 0 35.9155 0C45.6155 0 53.4155 7.9 53.4155 17.5C53.1155 21.9 51.3155 26.1 48.5155 29.1ZM48.0155 40.6C44.0155 36.7 39.4155 34.6 35.5155 34.6C28.6155 34.6 19.7155 41.1 15.5155 52.3C15.6155 52.4 15.6155 52.4 15.6155 52.4C15.6155 52.4 21.8155 50.9 22.5155 50.7C22.8155 50.6 23.4155 50.6 23.7155 50.7C23.8155 50.7 23.8155 50.7 23.9155 50.8C24.1155 50.9 24.2155 51 24.3155 51.2C24.7155 51.8 24.5155 52.4 24.4155 52.8L24.2155 53.3L21.5155 59.4L25.1155 65.6C25.5155 66.3 25.5155 67 25.0155 67.5C24.8155 67.8 24.4155 68.1 23.5155 68L16.5155 67.2L13.8155 70.4C14.2155 71.2 14.7155 72 15.4155 72.7C18.9155 76 27.2155 77.6 35.4155 77.6C43.7155 77.6 52.1155 75.9 55.5155 72.7C57.1155 71 58.0155 69 58.0155 66.6C58.0155 66.4 58.0155 66.2 58.0155 66L51.8155 60.7L42.0155 63.3C41.4155 63.5 40.6155 63.1 40.1155 62.4C39.7155 61.8 39.5155 61.2 39.8155 60.7C40.6155 58.7 43.7155 51.4 43.7155 51.4C43.7155 51.4 39.8155 45.5 38.1155 42.8C37.9155 42.4 38.0155 41.5 38.3155 41C38.7155 40.4 39.4155 40.1 40.1155 40.1C42.1155 40.2 45.7155 40.4 48.0155 40.6ZM46.5155 48.6C47.5155 50.1 48.1155 50.9 47.7155 51.9L45.0155 58.3C45.0155 58.3 51.2155 56.6 51.9155 56.4C52.7155 56.4 53.0155 56.5 53.2155 56.7L53.6155 57.1C54.1155 57.5 56.2155 59.4 57.5155 60.5C58.1155 61 58.5155 61.4 58.5155 61.4C58.5155 61.4 58.8155 55.7 58.8155 54.9C58.8155 54.8 58.8155 54.6 58.9155 54.5C58.9155 54 59.1155 53.4 60.3155 52.7L61.1155 52.3L65.9155 49.4L59.7155 47C59.4155 46.9 59.1155 46.7 58.9155 46.4C58.8155 46.4 58.8155 46.3 58.8155 46.2C58.8155 46.1 58.7155 46 58.7155 45.9V45.8V45.7C58.7155 45.6 58.7155 45.6 58.6155 45.5V45.4C58.6155 45.4 58.6155 45.4 58.6155 45.3V45.2L57.0155 38.7L55.4155 40.5L52.6155 43.7C52.2155 44.2 51.8155 44.4 51.5155 44.5C51.3155 44.6 51.1155 44.6 50.9155 44.6C50.8155 44.6 50.6155 44.6 50.5155 44.6L43.7155 44.1C43.9155 44.6 46.3155 48.3 46.5155 48.6ZM47.6155 17.2C47.6155 10.5 42.2155 5 35.4155 5C28.6155 5 23.3155 10.5 23.3155 17.2C23.3155 23.9 28.8155 29.3 35.5155 29.3C42.2155 29.3 47.6155 23.9 47.6155 17.2Z" fill="#885913"/>
</svg>
