<svg width="100" height="101" viewBox="0 0 100 101" fill="none" xmlns="http://www.w3.org/2000/svg">
<path d="M41.6763 96.5836H39.9771C38.731 96.5836 37.7114 95.5641 37.7114 94.318C37.7114 93.0719 38.731 92.0524 39.9771 92.0524H41.6763C42.9224 92.0524 43.9419 93.0719 43.9419 94.318C43.9419 95.5641 42.9337 96.5836 41.6763 96.5836Z" fill="#885913"/>
<path d="M31.1409 96.5836H20.8323C19.5862 96.5836 18.5667 95.5641 18.5667 94.318C18.5667 93.0719 19.5862 92.0524 20.8323 92.0524H31.1409C32.387 92.0524 33.4065 93.0719 33.4065 94.318C33.4065 95.5641 32.3983 96.5836 31.1409 96.5836Z" fill="#885913"/>
<path d="M51.9055 86.3656H5.22227C2.34492 86.3656 0 84.0207 0 81.1434V11.6793C0 8.80195 2.34492 6.45703 5.22227 6.45703H18.3855C19.6316 6.45703 20.6512 7.47656 20.6512 8.72266V13.0387H23.0074V8.72266C23.0074 7.47656 24.027 6.45703 25.273 6.45703H66.9719C68.218 6.45703 69.2375 7.47656 69.2375 8.72266V13.0387H71.5938V8.72266C71.5938 7.47656 72.6133 6.45703 73.8594 6.45703H87.0227C89.9 6.45703 92.2449 8.80195 92.2449 11.6793V57.7848C92.2449 58.691 91.7012 59.518 90.8629 59.8691C90.0246 60.2203 89.0617 60.0504 88.4047 59.416C84.4172 55.5871 79.1723 53.4801 73.6328 53.4801C68.7277 53.4801 63.9473 55.1793 60.1523 58.2719C59.7105 58.6344 59.2801 59.0082 58.8723 59.4047C57.9207 60.3223 57.0484 61.3191 56.2895 62.384C53.6727 66.0203 52.302 70.325 52.302 74.8109C52.302 77.7223 52.8797 80.5316 54.0012 83.1824C54.2957 83.8848 54.2277 84.6891 53.8086 85.3234C53.3781 85.9805 52.6645 86.3656 51.9055 86.3656ZM5.22227 10.9883C4.84844 10.9883 4.53125 11.2941 4.53125 11.6793V81.1434C4.53125 81.5172 4.83711 81.8344 5.22227 81.8344H48.7109C48.0766 79.5688 47.7594 77.2238 47.7594 74.8336C47.7594 69.3848 49.4359 64.1738 52.5965 59.7559C53.5254 58.4645 54.5789 57.2523 55.723 56.1535C56.2215 55.6777 56.7426 55.2133 57.2863 54.7715C61.8855 51.0219 67.6855 48.9602 73.6328 48.9602C78.6852 48.9602 83.5449 50.4102 87.7023 53.1176V11.6793C87.7023 11.3055 87.3965 10.9883 87.0113 10.9883H76.1137V14.7152C76.1137 16.2898 74.8336 17.5699 73.259 17.5699H67.5609C65.9863 17.5699 64.7063 16.2898 64.7063 14.7152V10.9883H27.5387V14.7152C27.5387 16.2898 26.2586 17.5699 24.684 17.5699H18.9859C17.4113 17.5699 16.1312 16.2898 16.1312 14.7152V10.9883H5.22227Z" fill="#885913"/>
<path d="M89.9566 27.0515H2.26562C1.01953 27.0515 0 26.032 0 24.7859C0 23.5398 1.01953 22.5203 2.26562 22.5203H89.9566C91.2027 22.5203 92.2223 23.5398 92.2223 24.7859C92.2223 26.032 91.2141 27.0515 89.9566 27.0515Z" fill="#885913"/>
<path d="M22.0557 44.2023H15.5081C13.7862 44.2023 12.3928 42.7976 12.3928 41.0871V35.5023C12.3928 33.7804 13.7975 32.3871 15.5081 32.3871H22.0557C23.7776 32.3871 25.171 33.7918 25.171 35.5023V41.0871C25.171 42.809 23.7776 44.2023 22.0557 44.2023ZM16.9127 39.6711H20.6397V36.907H16.9127V39.6711Z" fill="#885913"/>
<path d="M39.9544 44.2023H33.4067C31.6849 44.2023 30.2915 42.7976 30.2915 41.0871V35.5023C30.2915 33.7804 31.6962 32.3871 33.4067 32.3871H39.9544C41.6763 32.3871 43.0696 33.7918 43.0696 35.5023V41.0871C43.081 42.809 41.6763 44.2023 39.9544 44.2023ZM34.8228 39.6711H38.5497V36.907H34.8228V39.6711Z" fill="#885913"/>
<path d="M57.8641 44.2023H51.3164C49.5945 44.2023 48.2012 42.7976 48.2012 41.0871V35.5023C48.2012 33.7804 49.6059 32.3871 51.3164 32.3871H57.8641C59.5859 32.3871 60.9793 33.7918 60.9793 35.5023V41.0871C60.9793 42.809 59.5746 44.2023 57.8641 44.2023ZM52.7211 39.6711H56.448V36.907H52.7211V39.6711Z" fill="#885913"/>
<path d="M22.0557 60.0503H15.5081C13.7862 60.0503 12.3928 58.6457 12.3928 56.9351V51.3503C12.3928 49.6285 13.7975 48.2351 15.5081 48.2351H22.0557C23.7776 48.2351 25.171 49.6398 25.171 51.3503V56.9351C25.171 58.657 23.7776 60.0503 22.0557 60.0503ZM16.9127 55.5191H20.6397V52.755H16.9127V55.5191Z" fill="#885913"/>
<path d="M39.9544 60.0503H33.4067C31.6849 60.0503 30.2915 58.6457 30.2915 56.9351V51.3503C30.2915 49.6285 31.6962 48.2351 33.4067 48.2351H39.9544C41.6763 48.2351 43.0696 49.6398 43.0696 51.3503V56.9351C43.081 58.657 41.6763 60.0503 39.9544 60.0503ZM34.8228 55.5191H38.5497V52.755H34.8228V55.5191Z" fill="#885913"/>
<path d="M57.2864 60.0503H51.3052C49.5833 60.0503 48.1899 58.657 48.1899 56.9351V51.3503C48.1899 49.6285 49.5946 48.2351 51.3052 48.2351H57.8528C59.5747 48.2351 60.9681 49.6398 60.9681 51.3503V56.5273C60.9681 57.207 60.6622 57.8527 60.1298 58.2832C59.688 58.6457 59.2575 59.0195 58.8497 59.416C58.4419 59.8238 57.8755 60.0503 57.2864 60.0503ZM52.7212 55.5191H56.4028C56.4142 55.5078 56.4368 55.4964 56.4481 55.4738V52.755H52.7212V55.5191Z" fill="#885913"/>
<path d="M22.0557 75.8984H15.5081C13.7862 75.8984 12.3928 74.4937 12.3928 72.7832V67.1984C12.3928 65.4766 13.7975 64.0832 15.5081 64.0832H22.0557C23.7776 64.0832 25.171 65.4879 25.171 67.1984V72.7832C25.171 74.5051 23.7776 75.8984 22.0557 75.8984ZM16.9127 71.3672H20.6397V68.6031H16.9127V71.3672Z" fill="#885913"/>
<path d="M39.9544 75.8984H33.4067C31.6849 75.8984 30.2915 74.4937 30.2915 72.7832V67.1984C30.2915 65.4766 31.6962 64.0832 33.4067 64.0832H39.9544C41.6763 64.0832 43.0696 65.4879 43.0696 67.1984V72.7832C43.081 74.5051 41.6763 75.8984 39.9544 75.8984ZM34.8228 71.3672H38.5497V68.6031H34.8228V71.3672Z" fill="#885913"/>
<path d="M75.7625 44.089H69.2148C67.493 44.089 66.0996 42.6843 66.0996 40.9738V35.389C66.0996 33.6672 67.5043 32.2738 69.2148 32.2738H75.7625C77.4844 32.2738 78.8777 33.6785 78.8777 35.389V40.9738C78.8777 42.6843 77.4844 44.089 75.7625 44.089ZM70.6195 39.5578H74.3465V36.7937H70.6195V39.5578Z" fill="#885913"/>
<path d="M24.6726 17.5699H18.9746C17.4 17.5699 16.1199 16.2898 16.1199 14.7152V2.85469C16.1199 1.28008 17.4 0 18.9746 0H24.6726C26.2472 0 27.5273 1.28008 27.5273 2.85469V14.7152C27.5386 16.2898 26.2472 17.5699 24.6726 17.5699ZM20.6511 13.0387H23.0074V4.51992H20.6511V13.0387V13.0387Z" fill="#885913"/>
<path d="M73.259 17.5699H67.561C65.9864 17.5699 64.7063 16.2898 64.7063 14.7152V2.85469C64.7063 1.28008 65.9864 0 67.561 0H73.259C74.8336 0 76.1137 1.28008 76.1137 2.85469V14.7152C76.1137 16.2898 74.8336 17.5699 73.259 17.5699ZM69.2262 13.0387H71.5825V4.51992H69.2262V13.0387Z" fill="#885913"/>
<path d="M73.6215 100.707C71.4578 100.707 69.2941 100.435 67.2098 99.9028C63.3695 98.9286 59.7559 97.0368 56.7426 94.4426C53.752 91.8711 51.3617 88.5973 49.8211 84.9836C48.4504 81.7665 47.748 78.3567 47.748 74.8336C47.748 69.3848 49.4246 64.1739 52.5852 59.7559C53.5141 58.4645 54.5676 57.2524 55.7117 56.1536C56.2102 55.6778 56.7313 55.2133 57.275 54.7715C61.8742 51.0219 67.6742 48.9602 73.6215 48.9602C80.3277 48.9602 86.6828 51.509 91.5199 56.1536C94.0121 58.5438 95.9719 61.3532 97.3539 64.5024C98.7813 67.7649 99.4949 71.2426 99.4949 74.8336C99.4949 81.7438 96.7988 88.2461 91.9164 93.1286C87.034 98.011 80.5316 100.707 73.6215 100.707ZM73.6215 53.4915C68.7164 53.4915 63.9359 55.1907 60.141 58.2833C59.6992 58.6458 59.2688 59.0196 58.8609 59.4161C57.9094 60.3336 57.0371 61.3305 56.2781 62.3954C53.6613 66.0317 52.2906 70.3364 52.2906 74.8223C52.2906 77.7336 52.8684 80.543 53.9898 83.1938C56.584 89.277 61.9535 93.8762 68.3426 95.5075C70.0645 95.9493 71.843 96.1645 73.6328 96.1645C85.4027 96.1645 94.975 86.5922 94.975 74.8223C94.975 68.9543 92.6414 63.4715 88.3934 59.4161C84.4059 55.5985 79.1609 53.4915 73.6215 53.4915Z" fill="#885913"/>
<path d="M81.9591 85.4254C81.3814 85.4254 80.8036 85.1989 80.3618 84.7571L72.0243 76.4196C71.5938 75.9891 71.356 75.4227 71.356 74.8223V64.6383C71.356 63.3922 72.3755 62.3727 73.6216 62.3727C74.8677 62.3727 75.8872 63.3922 75.8872 64.6383V73.8821L83.5564 81.5512C84.44 82.4348 84.44 83.8735 83.5564 84.7571C83.1146 85.2102 82.5368 85.4254 81.9591 85.4254Z" fill="#885913"/>
<path d="M41.6763 96.5836H39.9771C38.731 96.5836 37.7114 95.5641 37.7114 94.318C37.7114 93.0719 38.731 92.0524 39.9771 92.0524H41.6763C42.9224 92.0524 43.9419 93.0719 43.9419 94.318C43.9419 95.5641 42.9337 96.5836 41.6763 96.5836Z" fill="#885913"/>
<path d="M31.1409 96.5836H20.8323C19.5862 96.5836 18.5667 95.5641 18.5667 94.318C18.5667 93.0719 19.5862 92.0524 20.8323 92.0524H31.1409C32.387 92.0524 33.4065 93.0719 33.4065 94.318C33.4065 95.5641 32.3983 96.5836 31.1409 96.5836Z" fill="#885913"/>
</svg>
