<svg width="107" height="133" viewBox="0 0 107 133" fill="none" xmlns="http://www.w3.org/2000/svg">
<g clip-path="url(#clip0)">
<path d="M71.8906 3.32501H35.1094C33.7791 3.32501 32.5034 3.85048 31.5628 4.78582C30.6222 5.72115 30.0938 6.98974 30.0938 8.31251V68.1625C30.0938 69.4853 30.6222 70.7539 31.5628 71.6892C32.5034 72.6245 33.7791 73.15 35.1094 73.15H45.1406V69.825H35.1094C34.666 69.825 34.2407 69.6499 33.9272 69.3381C33.6136 69.0263 33.4375 68.6034 33.4375 68.1625V8.31251C33.4375 7.87159 33.6136 7.44873 33.9272 7.13695C34.2407 6.82517 34.666 6.65001 35.1094 6.65001H71.8906C72.334 6.65001 72.7593 6.82517 73.0728 7.13695C73.3864 7.44873 73.5625 7.87159 73.5625 8.31251V68.1625C73.5625 68.6034 73.3864 69.0263 73.0728 69.3381C72.7593 69.6499 72.334 69.825 71.8906 69.825H61.8594V73.15H71.8906C73.2209 73.15 74.4966 72.6245 75.4372 71.6892C76.3778 70.7539 76.9062 69.4853 76.9062 68.1625V8.31251C76.9062 6.98974 76.3778 5.72115 75.4372 4.78582C74.4966 3.85048 73.2209 3.32501 71.8906 3.32501Z" fill="#885913"/>
<path d="M8.35938 66.5H26.75V63.175H8.35938C7.91597 63.175 7.49072 62.9998 7.17718 62.688C6.86364 62.3763 6.6875 61.9534 6.6875 61.5125V14.9625C6.6875 14.5216 6.86364 14.0987 7.17718 13.7869C7.49072 13.4751 7.91597 13.3 8.35938 13.3H26.75V9.97498H8.35938C7.02915 9.97498 5.7534 10.5004 4.81279 11.4358C3.87218 12.3711 3.34375 13.6397 3.34375 14.9625V61.5125C3.34375 62.8352 3.87218 64.1038 4.81279 65.0392C5.7534 65.9745 7.02915 66.5 8.35938 66.5Z" fill="#885913"/>
<path d="M46.8125 11.6375H43.4688V14.9625H46.8125V11.6375Z" fill="#885913"/>
<path d="M63.5312 11.6375H50.1562V14.9625H63.5312V11.6375Z" fill="#885913"/>
<path d="M41.7969 19.95H38.4531V26.6H41.7969V19.95Z" fill="#885913"/>
<path d="M48.4844 19.95H45.1406V26.6H48.4844V19.95Z" fill="#885913"/>
<path d="M55.1719 19.95H51.8281V26.6H55.1719V19.95Z" fill="#885913"/>
<path d="M61.8594 19.95H58.5156V26.6H61.8594V19.95Z" fill="#885913"/>
<path d="M68.5469 19.95H65.2031V26.6H68.5469V19.95Z" fill="#885913"/>
<path d="M63.5312 31.5875H51.8281V34.9125H63.5312V31.5875Z" fill="#885913"/>
<path d="M48.4844 61.5125H58.5156C59.8459 61.5125 61.1216 60.987 62.0622 60.0517C63.0028 59.1163 63.5312 57.8477 63.5312 56.525C63.5312 55.2022 63.0028 53.9336 62.0622 52.9983C61.1216 52.0629 59.8459 51.5375 58.5156 51.5375H48.4844C47.1541 51.5375 45.8784 52.0629 44.9378 52.9983C43.9972 53.9336 43.4688 55.2022 43.4688 56.525C43.4688 57.8477 43.9972 59.1163 44.9378 60.0517C45.8784 60.987 47.1541 61.5125 48.4844 61.5125ZM48.4844 54.8625H58.5156C58.959 54.8625 59.3843 55.0376 59.6978 55.3494C60.0114 55.6612 60.1875 56.0841 60.1875 56.525C60.1875 56.9659 60.0114 57.3888 59.6978 57.7005C59.3843 58.0123 58.959 58.1875 58.5156 58.1875H48.4844C48.041 58.1875 47.6157 58.0123 47.3022 57.7005C46.9886 57.3888 46.8125 56.9659 46.8125 56.525C46.8125 56.0841 46.9886 55.6612 47.3022 55.3494C47.6157 55.0376 48.041 54.8625 48.4844 54.8625Z" fill="#885913"/>
<path d="M26.75 16.625H21.7344V19.95H26.75V16.625Z" fill="#885913"/>
<path d="M13.375 24.9375H10.0312V29.925H13.375V24.9375Z" fill="#885913"/>
<path d="M20.0625 24.9375H16.7188V29.925H20.0625V24.9375Z" fill="#885913"/>
<path d="M26.75 24.9375H23.4062V29.925H26.75V24.9375Z" fill="#885913"/>
<path d="M18.3906 16.625H15.0469V19.95H18.3906V16.625Z" fill="#885913"/>
<path d="M16.7188 58.1875H26.75V54.8625H16.7188C16.2753 54.8625 15.8501 54.6874 15.5366 54.3756C15.223 54.0638 15.0469 53.6409 15.0469 53.2C15.0469 52.7591 15.223 52.3362 15.5366 52.0245C15.8501 51.7127 16.2753 51.5375 16.7188 51.5375H26.75V48.2125H16.7188C15.3885 48.2125 14.1128 48.738 13.1722 49.6733C12.2316 50.6087 11.7031 51.8773 11.7031 53.2C11.7031 54.5228 12.2316 55.7914 13.1722 56.7267C14.1128 57.662 15.3885 58.1875 16.7188 58.1875V58.1875Z" fill="#885913"/>
<path d="M98.6406 9.97498H80.25V13.3H98.6406C99.084 13.3 99.5093 13.4751 99.8228 13.7869C100.136 14.0987 100.312 14.5216 100.312 14.9625V61.5125C100.312 61.9534 100.136 62.3763 99.8228 62.688C99.5093 62.9998 99.084 63.175 98.6406 63.175H80.25V66.5H98.6406C99.9709 66.5 101.247 65.9745 102.187 65.0392C103.128 64.1038 103.656 62.8352 103.656 61.5125V14.9625C103.656 13.6397 103.128 12.3711 102.187 11.4358C101.247 10.5004 99.9709 9.97498 98.6406 9.97498V9.97498Z" fill="#885913"/>
<path d="M91.9531 16.625H80.25V19.95H91.9531V16.625Z" fill="#885913"/>
<path d="M96.9688 24.9375H93.625V29.925H96.9688V24.9375Z" fill="#885913"/>
<path d="M90.2812 24.9375H86.9375V29.925H90.2812V24.9375Z" fill="#885913"/>
<path d="M83.5938 24.9375H80.25V29.925H83.5938V24.9375Z" fill="#885913"/>
<path d="M80.25 48.2125V51.5375H90.2812C90.7247 51.5375 91.1499 51.7127 91.4634 52.0245C91.777 52.3362 91.9531 52.7591 91.9531 53.2C91.9531 53.6409 91.777 54.0638 91.4634 54.3756C91.1499 54.6874 90.7247 54.8625 90.2812 54.8625H80.25V58.1875H90.2812C91.6115 58.1875 92.8872 57.662 93.8278 56.7267C94.7684 55.7914 95.2969 54.5228 95.2969 53.2C95.2969 51.8773 94.7684 50.6087 93.8278 49.6733C92.8872 48.738 91.6115 48.2125 90.2812 48.2125H80.25Z" fill="#885913"/>
<path d="M78.578 101.413V83.3029C78.5932 82.1005 78.183 80.9311 77.4189 79.999C76.6549 79.067 75.5857 78.4316 74.3984 78.204C73.6776 78.0857 72.9396 78.1246 72.2355 78.3181C71.5314 78.5116 70.878 78.855 70.3207 79.3245C70.2872 79.3511 70.2538 79.3794 70.222 79.4093C69.3035 78.5894 68.1126 78.1359 66.8783 78.1359C65.6439 78.1359 64.4531 78.5894 63.5345 79.4093C62.8545 78.8296 62.0357 78.434 61.1571 78.2607C60.2786 78.0874 59.3699 78.1423 58.5189 78.4201V70.0029C58.5341 68.8005 58.1238 67.6311 57.3598 66.699C56.5958 65.767 55.5266 65.1316 54.3392 64.904C53.6195 64.7825 52.8818 64.8188 52.1776 65.0101C51.4734 65.2015 50.8197 65.5435 50.2622 66.0121C49.7046 66.4807 49.2567 67.0646 48.9496 67.7232C48.6425 68.3818 48.4837 69.0991 48.4843 69.825V90.164L44.0471 87.5173C43.3811 87.1171 42.6237 86.8918 41.846 86.8628C41.0683 86.8337 40.296 87.0017 39.6016 87.3511L39.3358 87.4824C38.623 87.8372 38.0145 88.3692 37.5693 89.0268C37.1242 89.6844 36.8576 90.4452 36.7954 91.2355C36.7331 92.0257 36.8774 92.8186 37.2141 93.537C37.5508 94.2555 38.0686 94.8752 38.7172 95.3361L49.1848 102.769C49.4684 102.97 49.8082 103.077 50.1562 103.075H76.9062C77.3496 103.075 77.7748 102.9 78.0884 102.588C78.4019 102.276 78.578 101.853 78.578 101.413ZM75.2343 99.75H50.6912L40.6599 92.6262C40.4803 92.4987 40.3367 92.3272 40.2433 92.1284C40.1498 91.9295 40.1095 91.7101 40.1263 91.4912C40.1431 91.2723 40.2165 91.0615 40.3392 90.8791C40.462 90.6967 40.6301 90.5489 40.8271 90.45L41.0929 90.3203C41.285 90.224 41.4985 90.1778 41.7134 90.1859C41.9283 90.194 42.1376 90.2563 42.3218 90.3668L49.2918 94.5231C49.5454 94.6754 49.8352 94.758 50.1314 94.7623C50.4277 94.7667 50.7198 94.6927 50.9778 94.5479C51.2358 94.4031 51.4505 94.1928 51.5999 93.9384C51.7493 93.6839 51.828 93.3946 51.828 93.1V69.825C51.8279 69.582 51.8814 69.3419 51.9847 69.1216C52.088 68.9014 52.2386 68.7064 52.4259 68.5502C52.6131 68.3941 52.8326 68.2807 53.0687 68.218C53.3048 68.1554 53.5519 68.1449 53.7925 68.1874C54.1974 68.2859 54.5558 68.5203 54.8071 68.8511C55.0584 69.1818 55.1872 69.5886 55.1718 70.0029V83.125C55.1718 83.5659 55.3479 83.9888 55.6615 84.3006C55.975 84.6123 56.4003 84.7875 56.8437 84.7875C57.2871 84.7875 57.7123 84.6123 58.0259 84.3006C58.3394 83.9888 58.5155 83.5659 58.5155 83.125C58.5155 82.6841 58.6917 82.2612 59.0052 81.9494C59.3188 81.6377 59.744 81.4625 60.1874 81.4625C60.6308 81.4625 61.0561 81.6377 61.3696 81.9494C61.6832 82.2612 61.8593 82.6841 61.8593 83.125C61.8593 83.5659 62.0354 83.9888 62.349 84.3006C62.6625 84.6123 63.0878 84.7875 63.5312 84.7875C63.9746 84.7875 64.3998 84.6123 64.7134 84.3006C65.0269 83.9888 65.203 83.5659 65.203 83.125C65.203 82.6841 65.3792 82.2612 65.6927 81.9494C66.0063 81.6377 66.4315 81.4625 66.8749 81.4625C67.3183 81.4625 67.7436 81.6377 68.0571 81.9494C68.3707 82.2612 68.5468 82.6841 68.5468 83.125C68.5468 83.5659 68.7229 83.9888 69.0365 84.3006C69.35 84.6123 69.7753 84.7875 70.2187 84.7875C70.6621 84.7875 71.0873 84.6123 71.4009 84.3006C71.7144 83.9888 71.8905 83.5659 71.8905 83.125C71.8904 82.882 71.9439 82.6419 72.0472 82.4216C72.1505 82.2014 72.3011 82.0064 72.4884 81.8502C72.6757 81.6941 72.8951 81.5807 73.1312 81.518C73.3673 81.4554 73.6144 81.4449 73.855 81.4874C74.2599 81.5859 74.6183 81.8203 74.8696 82.1511C75.1209 82.4818 75.2497 82.8886 75.2343 83.3029V99.75Z" fill="#885913"/>
<path d="M48.4844 31.5875H43.4688V34.9125H48.4844V31.5875Z" fill="#885913"/>
<path d="M63.5312 38.2375H43.4688V41.5625H63.5312V38.2375Z" fill="#885913"/>
<path d="M60.1875 44.8875H46.8125V48.2125H60.1875V44.8875Z" fill="#885913"/>
<path d="M26.75 34.9125H16.7188V38.2375H26.75V34.9125Z" fill="#885913"/>
<path d="M26.75 41.5625H20.0625V44.8875H26.75V41.5625Z" fill="#885913"/>
<path d="M88.6094 34.9125H80.25V38.2375H88.6094V34.9125Z" fill="#885913"/>
<path d="M85.2656 41.5625H80.25V44.8875H85.2656V41.5625Z" fill="#885913"/>
<path d="M0.463867 136.338V134.214H0.0708008V133.696H0.463867V133.471C0.463867 133.175 0.548503 132.946 0.717773 132.783C0.888672 132.618 1.12712 132.536 1.43311 132.536C1.53076 132.536 1.65039 132.553 1.79199 132.585L1.78467 133.132C1.72607 133.117 1.65446 133.11 1.56982 133.11C1.30452 133.11 1.17188 133.234 1.17188 133.484V133.696H1.69678V134.214H1.17188V136.338H0.463867ZM3.54736 134.358C3.45133 134.345 3.3667 134.338 3.29346 134.338C3.02653 134.338 2.85156 134.428 2.76855 134.609V136.338H2.06299V133.696H2.72949L2.74902 134.011C2.89062 133.768 3.08675 133.647 3.3374 133.647C3.41553 133.647 3.48877 133.658 3.55713 133.679L3.54736 134.358ZM3.69141 134.992C3.69141 134.73 3.74186 134.497 3.84277 134.292C3.94368 134.087 4.08854 133.928 4.27734 133.816C4.46777 133.703 4.68831 133.647 4.93896 133.647C5.29541 133.647 5.58594 133.756 5.81055 133.974C6.03678 134.192 6.16292 134.489 6.18896 134.863L6.19385 135.044C6.19385 135.449 6.08073 135.774 5.85449 136.02C5.62826 136.264 5.32471 136.386 4.94385 136.386C4.56299 136.386 4.25863 136.264 4.03076 136.02C3.80452 135.776 3.69141 135.444 3.69141 135.024V134.992ZM4.39697 135.044C4.39697 135.294 4.44417 135.486 4.53857 135.62C4.63298 135.752 4.76807 135.818 4.94385 135.818C5.11475 135.818 5.24821 135.752 5.34424 135.622C5.44027 135.49 5.48828 135.28 5.48828 134.992C5.48828 134.747 5.44027 134.556 5.34424 134.421C5.24821 134.286 5.11312 134.218 4.93896 134.218C4.76644 134.218 4.63298 134.286 4.53857 134.421C4.44417 134.554 4.39697 134.762 4.39697 135.044ZM7.29004 133.696L7.31201 133.991C7.49919 133.762 7.75228 133.647 8.07129 133.647C8.41146 133.647 8.64502 133.781 8.77197 134.05C8.95752 133.781 9.22201 133.647 9.56543 133.647C9.85189 133.647 10.0651 133.731 10.2051 133.899C10.3451 134.065 10.415 134.315 10.415 134.651V136.338H9.70703V134.653C9.70703 134.503 9.67773 134.394 9.61914 134.326C9.56055 134.256 9.45719 134.221 9.30908 134.221C9.09749 134.221 8.95101 134.322 8.86963 134.524L8.87207 136.338H8.1665V134.655C8.1665 134.502 8.13639 134.392 8.07617 134.323C8.01595 134.255 7.91341 134.221 7.76855 134.221C7.56836 134.221 7.4235 134.304 7.33398 134.47V136.338H6.62842V133.696H7.29004ZM13.0493 133.047V133.696H13.501V134.214H13.0493V135.532C13.0493 135.63 13.068 135.7 13.1055 135.742C13.1429 135.784 13.2145 135.805 13.3203 135.805C13.3984 135.805 13.4676 135.8 13.5278 135.788V136.323C13.3895 136.365 13.2471 136.386 13.1006 136.386C12.6058 136.386 12.3535 136.137 12.3438 135.637V134.214H11.958V133.696H12.3438V133.047H13.0493ZM14.5825 133.984C14.7697 133.759 15.0049 133.647 15.2881 133.647C15.861 133.647 16.1515 133.98 16.1597 134.646V136.338H15.4541V134.665C15.4541 134.514 15.4215 134.402 15.3564 134.331C15.2913 134.257 15.1831 134.221 15.0317 134.221C14.825 134.221 14.6753 134.301 14.5825 134.46V136.338H13.877V132.588H14.5825V133.984ZM17.9077 136.386C17.5203 136.386 17.2046 136.268 16.9604 136.03C16.7179 135.792 16.5967 135.476 16.5967 135.08V135.012C16.5967 134.747 16.6479 134.51 16.7505 134.301C16.853 134.091 16.9979 133.93 17.1851 133.818C17.3739 133.704 17.5887 133.647 17.8296 133.647C18.1909 133.647 18.4749 133.761 18.6816 133.989C18.89 134.217 18.9941 134.54 18.9941 134.958V135.246H17.312C17.3348 135.419 17.4032 135.557 17.5171 135.661C17.6326 135.765 17.7783 135.818 17.9541 135.818C18.2259 135.818 18.4383 135.719 18.5913 135.522L18.938 135.91C18.8322 136.06 18.689 136.177 18.5083 136.262C18.3276 136.345 18.1274 136.386 17.9077 136.386ZM17.8271 134.218C17.6872 134.218 17.5732 134.266 17.4854 134.36C17.3991 134.454 17.3438 134.589 17.3193 134.765H18.3008V134.709C18.2975 134.553 18.2552 134.432 18.1738 134.348C18.0924 134.262 17.9769 134.218 17.8271 134.218ZM23.5791 136.338H22.8467L21.4209 133.999V136.338H20.6885V132.783H21.4209L22.8491 135.127V132.783H23.5791V136.338ZM24.0625 134.992C24.0625 134.73 24.113 134.497 24.2139 134.292C24.3148 134.087 24.4596 133.928 24.6484 133.816C24.8389 133.703 25.0594 133.647 25.3101 133.647C25.6665 133.647 25.957 133.756 26.1816 133.974C26.4079 134.192 26.534 134.489 26.5601 134.863L26.5649 135.044C26.5649 135.449 26.4518 135.774 26.2256 136.02C25.9993 136.264 25.6958 136.386 25.3149 136.386C24.9341 136.386 24.6297 136.264 24.4019 136.02C24.1756 135.776 24.0625 135.444 24.0625 135.024V134.992ZM24.7681 135.044C24.7681 135.294 24.8153 135.486 24.9097 135.62C25.0041 135.752 25.1392 135.818 25.3149 135.818C25.4858 135.818 25.6193 135.752 25.7153 135.622C25.8114 135.49 25.8594 135.28 25.8594 134.992C25.8594 134.747 25.8114 134.556 25.7153 134.421C25.6193 134.286 25.4842 134.218 25.3101 134.218C25.1375 134.218 25.0041 134.286 24.9097 134.421C24.8153 134.554 24.7681 134.762 24.7681 135.044ZM28.5815 136.069C28.4074 136.281 28.1665 136.386 27.8589 136.386C27.5757 136.386 27.3592 136.305 27.2095 136.142C27.0614 135.979 26.9857 135.741 26.9824 135.427V133.696H27.688V135.402C27.688 135.678 27.8133 135.815 28.064 135.815C28.3032 135.815 28.4676 135.732 28.5571 135.566V133.696H29.2651V136.338H28.6011L28.5815 136.069ZM30.4468 133.696L30.4688 134.001C30.6576 133.765 30.9106 133.647 31.228 133.647C31.508 133.647 31.7163 133.729 31.853 133.894C31.9897 134.058 32.0597 134.304 32.063 134.631V136.338H31.3574V134.648C31.3574 134.498 31.3249 134.39 31.2598 134.323C31.1947 134.255 31.0864 134.221 30.9351 134.221C30.7365 134.221 30.5876 134.305 30.4883 134.475V136.338H29.7827V133.696H30.4468ZM34.624 135.085V136.338H33.8916V132.783H35.2783C35.5452 132.783 35.7796 132.832 35.9814 132.929C36.1849 133.027 36.3411 133.166 36.4502 133.347C36.5592 133.526 36.6138 133.73 36.6138 133.96C36.6138 134.308 36.4941 134.583 36.2549 134.785C36.0173 134.985 35.6877 135.085 35.2661 135.085H34.624ZM34.624 134.492H35.2783C35.472 134.492 35.6193 134.446 35.7202 134.355C35.8228 134.264 35.874 134.134 35.874 133.964C35.874 133.79 35.8228 133.65 35.7202 133.542C35.6177 133.435 35.4761 133.379 35.2954 133.376H34.624V134.492ZM38.5571 134.358C38.4611 134.345 38.3765 134.338 38.3032 134.338C38.0363 134.338 37.8613 134.428 37.7783 134.609V136.338H37.0728V133.696H37.7393L37.7588 134.011C37.9004 133.768 38.0965 133.647 38.3472 133.647C38.4253 133.647 38.4985 133.658 38.5669 133.679L38.5571 134.358ZM38.7012 134.992C38.7012 134.73 38.7516 134.497 38.8525 134.292C38.9535 134.087 39.0983 133.928 39.2871 133.816C39.4775 133.703 39.6981 133.647 39.9487 133.647C40.3052 133.647 40.5957 133.756 40.8203 133.974C41.0465 134.192 41.1727 134.489 41.1987 134.863L41.2036 135.044C41.2036 135.449 41.0905 135.774 40.8643 136.02C40.638 136.264 40.3345 136.386 39.9536 136.386C39.5728 136.386 39.2684 136.264 39.0405 136.02C38.8143 135.776 38.7012 135.444 38.7012 135.024V134.992ZM39.4067 135.044C39.4067 135.294 39.4539 135.486 39.5483 135.62C39.6427 135.752 39.7778 135.818 39.9536 135.818C40.1245 135.818 40.258 135.752 40.354 135.622C40.45 135.49 40.498 135.28 40.498 134.992C40.498 134.747 40.45 134.556 40.354 134.421C40.258 134.286 40.1229 134.218 39.9487 134.218C39.7762 134.218 39.6427 134.286 39.5483 134.421C39.4539 134.554 39.4067 134.762 39.4067 135.044ZM42.3853 133.696V136.482C42.3853 136.773 42.3079 136.999 42.1533 137.16C41.9987 137.323 41.7757 137.404 41.4844 137.404C41.3623 137.404 41.2459 137.391 41.1353 137.363V136.804C41.2199 136.818 41.2939 136.826 41.3574 136.826C41.5706 136.826 41.6772 136.713 41.6772 136.486V133.696H42.3853ZM41.6211 133.012C41.6211 132.907 41.6561 132.819 41.7261 132.751C41.7977 132.683 41.8945 132.649 42.0166 132.649C42.1387 132.649 42.2347 132.683 42.3047 132.751C42.3763 132.819 42.4121 132.907 42.4121 133.012C42.4121 133.12 42.3755 133.208 42.3022 133.276C42.2306 133.344 42.1354 133.379 42.0166 133.379C41.8978 133.379 41.8018 133.344 41.7285 133.276C41.6569 133.208 41.6211 133.12 41.6211 133.012ZM44.1528 136.386C43.7655 136.386 43.4497 136.268 43.2056 136.03C42.9631 135.792 42.8418 135.476 42.8418 135.08V135.012C42.8418 134.747 42.8931 134.51 42.9956 134.301C43.0981 134.091 43.243 133.93 43.4302 133.818C43.619 133.704 43.8338 133.647 44.0747 133.647C44.436 133.647 44.7201 133.761 44.9268 133.989C45.1351 134.217 45.2393 134.54 45.2393 134.958V135.246H43.5571C43.5799 135.419 43.6483 135.557 43.7622 135.661C43.8778 135.765 44.0234 135.818 44.1992 135.818C44.471 135.818 44.6834 135.719 44.8364 135.522L45.1831 135.91C45.0773 136.06 44.9341 136.177 44.7534 136.262C44.5728 136.345 44.3726 136.386 44.1528 136.386ZM44.0723 134.218C43.9323 134.218 43.8184 134.266 43.7305 134.36C43.6442 134.454 43.5889 134.589 43.5645 134.765H44.5459V134.709C44.5426 134.553 44.5003 134.432 44.4189 134.348C44.3376 134.262 44.222 134.218 44.0723 134.218ZM46.7407 135.818C46.8709 135.818 46.9767 135.782 47.0581 135.71C47.1395 135.638 47.1818 135.543 47.1851 135.424H47.8467C47.8451 135.603 47.7962 135.768 47.7002 135.918C47.6042 136.066 47.4723 136.181 47.3047 136.264C47.1387 136.346 46.9548 136.386 46.7529 136.386C46.3753 136.386 46.0775 136.267 45.8594 136.027C45.6413 135.787 45.5322 135.455 45.5322 135.031V134.985C45.5322 134.578 45.6405 134.253 45.8569 134.011C46.0734 133.768 46.3704 133.647 46.748 133.647C47.0785 133.647 47.3429 133.741 47.5415 133.93C47.7417 134.117 47.8434 134.367 47.8467 134.68H47.1851C47.1818 134.543 47.1395 134.432 47.0581 134.348C46.9767 134.262 46.8693 134.218 46.7358 134.218C46.5715 134.218 46.4469 134.279 46.3623 134.399C46.2793 134.518 46.2378 134.712 46.2378 134.98V135.053C46.2378 135.325 46.2793 135.52 46.3623 135.639C46.4453 135.758 46.5715 135.818 46.7407 135.818ZM49.0942 133.047V133.696H49.5459V134.214H49.0942V135.532C49.0942 135.63 49.113 135.7 49.1504 135.742C49.1878 135.784 49.2594 135.805 49.3652 135.805C49.4434 135.805 49.5125 135.8 49.5728 135.788V136.323C49.4344 136.365 49.292 136.386 49.1455 136.386C48.6507 136.386 48.3984 136.137 48.3887 135.637V134.214H48.0029V133.696H48.3887V133.047H49.0942Z" fill="#885913"/>
</g>
<defs>
<clipPath id="clip0">
<rect width="107" height="133" fill="white"/>
</clipPath>
</defs>
</svg>
