<svg width="88" height="101" viewBox="0 0 88 101" fill="none" xmlns="http://www.w3.org/2000/svg">
<path d="M86.3704 90.0578C86.3704 86.1823 84.291 82.561 80.9404 80.6078L79.5292 79.7851C82.4316 79.5896 84.7407 77.1901 84.7407 74.2399V74.002C84.7407 70.9248 82.236 68.4194 79.156 68.4194C78.2939 68.4194 77.4286 68.623 76.6578 69.0091L75.1667 69.7552L70.4554 65.9872C68.9578 64.7899 67.791 63.2179 67.0804 61.4406L65.9788 58.6891C65.4524 57.3713 65.1852 55.9833 65.1852 54.5644V53.4013L71.9775 51.7039L69.181 37.7284C68.5895 34.7684 66.4253 32.3917 63.5311 31.5234L52.1481 28.1106V24.2563C54.1607 22.1988 55.4074 19.3887 55.4074 16.292V11.4032C55.4074 5.11516 50.2887 0 44 0C37.7113 0 32.5926 5.11516 32.5926 11.4032V16.2903C32.5926 19.3887 33.8393 22.1988 35.8519 24.2547V28.109L24.4689 31.5234C21.5763 32.39 19.4105 34.7684 18.819 37.7284L16.0225 51.7039L22.8148 53.4013V54.5644C22.8148 55.9833 22.5476 57.3713 22.0212 58.6875L20.9196 61.439C20.2074 63.2162 19.0422 64.7882 17.5446 65.9856L12.8333 69.7535L11.3422 69.0074C10.5698 68.623 9.70607 68.4194 8.844 68.4194C5.764 68.4194 3.25926 70.9248 3.25926 74.002V74.2399C3.25926 77.1901 5.56844 79.5896 8.47081 79.7851L7.05956 80.6078C3.70904 82.561 1.62963 86.1823 1.62963 90.0578C1.62963 93.0503 2.83881 95.7643 4.79437 97.7419H0V101H12.5759H37.5287H50.4696H75.4225H88V97.7419H83.2056C85.1612 95.7643 86.3704 93.0503 86.3704 90.0578ZM55.9696 86.7313L52.7397 84.7944L53.7778 83.7551V81.6487C53.7778 80.642 54.5975 79.8226 55.6046 79.8226C56.9441 79.8226 58.2544 79.2801 59.2012 78.3336L62.0661 75.4698C62.4067 75.131 62.8776 74.9355 63.3584 74.9355C64.3655 74.9355 65.1852 75.7549 65.1852 76.7616C65.1852 77.2503 64.9961 77.7081 64.6507 78.0535L55.9696 86.7313ZM23.3493 78.0535C23.0039 77.7081 22.8148 77.2503 22.8148 76.7616C22.8148 75.7549 23.6345 74.9355 24.6416 74.9355C25.1224 74.9355 25.5933 75.131 25.9339 75.4698L28.7988 78.3336C29.7456 79.2801 31.0559 79.8226 32.3954 79.8226C33.4025 79.8226 34.2222 80.642 34.2222 81.6487V83.7551L36.8068 86.3387L34.2222 88.9224L23.3493 78.0535ZM39.1111 84.0353L37.4815 82.4062V81.6487C37.4815 78.8452 35.2 76.5645 32.3954 76.5645C31.9147 76.5645 31.4437 76.369 31.1031 76.0302L28.2382 73.1664C27.8618 72.7901 27.4169 72.4968 26.9459 72.2574C27.6385 71.7882 28.261 71.2327 28.789 70.5876C31.4079 72.0374 37.4587 74.9355 44 74.9355C50.5413 74.9355 56.5921 72.0374 59.211 70.5892C59.739 71.2343 60.3615 71.7882 61.0541 72.2574C60.5831 72.4968 60.1382 72.7901 59.7618 73.1664L56.8969 76.0302C56.5563 76.369 56.0853 76.5645 55.6046 76.5645C52.8 76.5645 50.5185 78.8452 50.5185 81.6487V82.4062L49.8585 83.066L43.7474 79.4007L39.1111 84.0353ZM32.5926 55.6217V51.6029L33.5899 51.2037C42.9114 47.4765 50.6831 41.0842 56.1717 32.7191L61.147 34.2113L59.5988 38.0803C57.0273 44.5084 52.9304 50.3387 47.7514 54.9424C43.6105 58.6207 38.883 61.4715 33.7301 63.4019L31.4665 64.1953C32.1933 61.3999 32.5926 58.536 32.5926 55.6217ZM57.6465 67.727C55.321 69.0107 49.7901 71.6774 44 71.6774C38.5 71.6774 33.2086 69.2518 30.7055 67.9144L34.8415 66.4629C40.4034 64.3794 45.4748 61.3217 49.9156 57.3761C51.9037 55.6086 53.737 53.6668 55.4058 51.5931V55.6201C55.4074 59.779 56.1766 63.8434 57.6465 67.727ZM62.9526 59.8979L64.0542 62.6493C64.975 64.9495 66.484 66.9826 68.42 68.5285L74.7609 73.5997L78.1179 71.9218C78.4373 71.7621 78.7975 71.6774 79.156 71.6774C80.4385 71.6774 81.4815 72.72 81.4815 74.002V74.2399C81.4815 75.5219 80.4385 76.5645 79.156 76.5645H75.385L63.2655 69.835C62.1883 69.2371 61.3409 68.276 60.883 67.1308C59.413 63.4524 58.6667 59.5802 58.6667 55.6217V55.0303L61.9259 54.2158V54.5644C61.9259 56.4004 62.2714 58.1939 62.9526 59.8979ZM68.1707 49.2961L58.6667 51.6713V47.0285C60.2148 44.572 61.5479 41.9818 62.6267 39.289L64.1504 35.482C65.0711 36.1906 65.7507 37.1859 65.987 38.367L68.1707 49.2961ZM48.8889 28.6025C47.828 29.5132 45.7812 30.9516 44 30.9516C42.2188 30.9516 40.172 29.5132 39.1111 28.6025V26.5777C40.5957 27.2847 42.2498 27.6935 44 27.6935C45.7502 27.6935 47.4043 27.2847 48.8889 26.5777V28.6025ZM35.8519 11.4032C35.8519 6.91198 39.5071 3.25806 44 3.25806C48.4929 3.25806 52.1481 6.91198 52.1481 11.4032V16.2903C52.1481 20.7816 48.4929 24.4355 44 24.4355C39.5071 24.4355 35.8519 20.7816 35.8519 16.2903V11.4032ZM22.0147 38.3686C22.3699 36.593 23.6704 35.1659 25.4043 34.6463L37.0692 31.1471C38.3468 32.2369 41.0585 34.2097 44 34.2097C46.9415 34.2097 49.6532 32.2369 50.9308 31.1471L52.9027 31.7384C47.8573 39.0821 40.8907 44.7186 32.5926 48.0841V42.3548H29.3333V51.6713L19.8293 49.2961L22.0147 38.3686ZM6.51852 74.2399V74.002C6.51852 72.72 7.56148 71.6774 8.844 71.6774C9.20415 71.6774 9.56267 71.7621 9.88533 71.9234L13.2424 73.6013L19.5833 68.5301C21.5193 66.9825 23.0267 64.9495 23.949 62.651L25.0507 59.8979C25.7319 58.1955 26.0773 56.4004 26.0773 54.5644V54.2158L29.3366 55.0303V55.6217C29.3366 59.5802 28.5902 63.4524 27.1219 67.1292C26.6624 68.276 25.815 69.2355 24.7378 69.835L12.615 76.5645H8.844C7.56148 76.5645 6.51852 75.5219 6.51852 74.2399ZM12.5759 97.7419C8.33718 97.7419 4.88889 94.2949 4.88889 90.0578C4.88889 87.3357 6.34904 84.7928 8.70222 83.4211L19.5865 77.0744C19.6615 78.3141 20.1601 79.4707 21.045 80.3569L35.4901 94.7966C36.5933 95.8995 37.8025 96.8492 39.085 97.6703C38.5684 97.7159 38.0502 97.7419 37.5287 97.7419H12.5759ZM50.4713 97.7419C45.6834 97.7419 41.1807 95.8783 37.796 92.4932L36.5265 91.2258L44.2526 83.5026L54.3644 89.5674L59.457 92.6219L61.1339 89.8281L58.8492 88.4581L66.9533 80.3569C67.8398 79.4723 68.3369 78.3141 68.4119 77.0744L79.2961 83.4211C81.6477 84.7928 83.1095 87.3357 83.1095 90.0578C83.1111 94.2949 79.6628 97.7419 75.4241 97.7419H50.4713Z" fill="#4C5C71"/>
</svg>
